{"title":"Zara NachKe Dikha-EP02-02nd May'10-63Rip-muxed.mkv~DIBYA","uid":5534486,"size":181508757,"categoryP":"video","categoryS":"tv_shows","magnet":"?xt=urn:btih:a976e24283daa49320658b527bcdb10002b2f6b5&amp;dn=Zara+NachKe+Dikha-EP02-02nd+May%5C%2710-63Rip-muxed.mkv%7EDIBYA&amp;tr=udp%3A%2F%2Ftracker.openbittorrent.com%3A80&amp;tr=udp%3A%2F%2Fopen.demonii.com%3A1337&amp;tr=udp%3A%2F%2Ftracker.coppersurfer.tk%3A6969&amp;tr=udp%3A%2F%2Fexodus.desync.com%3A6969","seeders":0,"leechers":0,"uploader":"DibyaTPB","files":1,"time":1273024257,"description":"************************************************** ***********************\nZara Nach Ke Dikha - EP02 - 2MAY - iND - XviD\n************************************************** ***********************\n\nOriginal Ripper: SMARTRAN63\n\n\nFormat : Matroska\nFile size : 173 MiB\nDuration : 1h 4mn\nOverall bit rate : 378 Kbps\nEncoded date : UTC 2010-05-04 06:46:24\nWriting application : mkvmerge v3.2.0 ('Beginnings') built on Feb 12 2010 16:46:17\nWriting library : libebml v0.7.9 + libmatroska v0.8.1\n\nVideo\nID : 1\nFormat : AVC\nFormat/Info : Advanced Video Codec\nFormat profile : &lt;a class=&quot;__cf_email__&quot; href=&quot;/cdn-cgi/l/email-protection&quot; data-cfemail=&quot;327a5b555a727e001c03&quot;&gt;[email&amp;#160;protected]&lt;/a&gt;&lt;script cf-hash='f9e31' type=&quot;text/javascript&quot;&gt;\n/* &lt;![CDATA[ */!function(){try{var t=&quot;currentScript&quot;in document?document.currentScript:function(){for(var t=document.getElementsByTagName(&quot;script&quot;),e=t.length;e--;)if(t[e].getAttribute(&quot;cf-hash&quot;))return t[e]}();if(t&amp;&amp;t.previousSibling){var e,r,n,i,c=t.previousSibling,a=c.getAttribute(&quot;data-cfemail&quot;);if(a){for(e=&quot;&quot;,r=parseInt(a.substr(0,2),16),n=2;a.length-n;n+=2)i=parseInt(a.substr(n,2),16)^r,e+=String.fromCharCode(i);e=document.createTextNode(e),c.parentNode.replaceChild(e,c)}}}catch(u){}}();/* ]]&gt; */&lt;/script&gt;\nFormat settings, CABAC : Yes\nFormat settings, ReFrames : 3 frames\nMuxing mode : Container profile=&lt;a class=&quot;__cf_email__&quot; href=&quot;/cdn-cgi/l/email-protection&quot; data-cfemail=&quot;c396ada8adacb4ad83f1edf2&quot;&gt;[email&amp;#160;protected]&lt;/a&gt;&lt;script cf-hash='f9e31' type=&quot;text/javascript&quot;&gt;\n/* &lt;![CDATA[ */!function(){try{var t=&quot;currentScript&quot;in document?document.currentScript:function(){for(var t=document.getElementsByTagName(&quot;script&quot;),e=t.length;e--;)if(t[e].getAttribute(&quot;cf-hash&quot;))return t[e]}();if(t&amp;&amp;t.previousSibling){var e,r,n,i,c=t.previousSibling,a=c.getAttribute(&quot;data-cfemail&quot;);if(a){for(e=&quot;&quot;,r=parseInt(a.substr(0,2),16),n=2;a.length-n;n+=2)i=parseInt(a.substr(n,2),16)^r,e+=String.fromCharCode(i);e=document.createTextNode(e),c.parentNode.replaceChild(e,c)}}}catch(u){}}();/* ]]&gt; */&lt;/script&gt;\nCodec ID : V_MPEG4/ISO/AVC\nDuration : 1h 4mn\nBit rate : 322 Kbps\nNominal bit rate : 329 Kbps\nWidth : 512 pixels\nHeight : 384 pixels\nDisplay aspect ratio : 4:3\nFrame rate : 25.000 fps\nResolution : 24 bits\nColorimetry : 4:2:0\nScan type : Progressive\nBits/(Pixel*Frame) : 0.066\nStream size : 148 MiB (85%)\nWriting library : x264 core 80 r1376M 3feaec2\nAudio\nID : 2\nFormat : MPEG Audio\nFormat version : Version 2\nFormat profile : Layer 3\nFormat_Settings_Mode : Joint stereo / MS Stereo\nCodec ID : A_MPEG/L3\nCodec ID/Hint : MP3\nDuration : 1h 4mn\nBit rate mode : Constant\nBit rate : 48.0 Kbps\nChannel(s) : 2 channels\nSampling rate : 22.05 KHz\nResolution : 16 bits\nStream size : 22.0 MiB (13%)\n","torrent":{"xt":"urn:btih:a976e24283daa49320658b527bcdb10002b2f6b5","amp;dn":"Zara+NachKe+Dikha-EP02-02nd+May%5C%2710-63Rip-muxed.mkv%7EDIBYA","amp;tr":["udp%3A%2F%2Ftracker.openbittorrent.com%3A80","udp%3A%2F%2Fopen.demonii.com%3A1337","udp%3A%2F%2Ftracker.coppersurfer.tk%3A6969","udp%3A%2F%2Fexodus.desync.com%3A6969"],"infoHash":"a976e24283daa49320658b527bcdb10002b2f6b5","infoHashBuffer":{"type":"Buffer","data":[169,118,226,66,131,218,164,147,32,101,139,82,123,205,177,0,2,178,246,181]},"announce":[],"urlList":[]}}